<!DOCTYPE svg PUBLIC "-//W3C//DTD SVG 1.1//EN" "http://www.w3.org/Graphics/SVG/1.1/DTD/svg11.dtd">
<!-- Uploaded to: SVG Repo, www.svgrepo.com, Transformed by: SVG Repo Mixer Tools -->
<svg fill="#ffffff" version="1.1" id="Capa_1" xmlns="http://www.w3.org/2000/svg" xmlns:xlink="http://www.w3.org/1999/xlink" width="800px" height="800px" viewBox="0 0 108.336 108.336" xml:space="preserve" transform="matrix(-1, 0, 0, 1, 0, 0)" stroke="#ffffff">
<g id="SVGRepo_bgCarrier" stroke-width="0"/>
<g id="SVGRepo_tracerCarrier" stroke-linecap="round" stroke-linejoin="round"/>
<g id="SVGRepo_iconCarrier"> <g> <path d="M54.168,0C24.3,0,0,24.3,0,54.168c0,29.869,24.3,54.168,54.168,54.168s54.168-24.299,54.168-54.168 C108.336,24.3,84.036,0,54.168,0z M91.699,91.611c-10.412,10.371-22.924,15.559-37.531,15.559c5.77,0,10.75-5.188,14.945-15.559 c4.191-10.373,6.291-22.885,6.291-37.532c0-14.608-2.1-27.107-6.291-37.503C64.918,6.184,59.938,0.987,54.168,0.987 c14.607,0,27.119,5.197,37.531,15.588c10.414,10.396,15.621,22.895,15.621,37.503C107.32,68.727,102.113,81.238,91.699,91.611z"/> </g> </g>
</svg>